<svg xmlns="http://www.w3.org/2000/svg" xmlns:xlink="http://www.w3.org/1999/xlink" viewBox="0 0 154.5 154.5" height="154.5" width="154.5" data-background-color="#ffffff" preserveAspectRatio="xMidYMid meet" id="tight-bounds"><g><svg/></g><g><svg viewBox="0 0 154.5 154.5" height="154.5" width="154.5"><g transform="matrix(1,0,0,1,53.67195940870786,47.746371)"><svg viewBox="0 0 47.156081182584266 59.00725799999999" height="59.00725799999999" width="47.156081182584266"><g><svg viewBox="0 0 47.156081182584266 59.00725799999999" height="59.00725799999999" width="47.156081182584266"><g><svg viewBox="0 0 47.156081182584266 59.00725799999999" height="59.00725799999999" width="47.156081182584266"><g id="textblocktransform"><svg viewBox="0 0 47.156081182584266 59.00725799999999" height="59.00725799999999" width="47.156081182584266" id="textblock"><g><svg viewBox="0 0 47.156081182584266 59.00725799999999" height="59.00725799999999" width="47.156081182584266"><g transform="matrix(1,0,0,1,0,0)"><svg width="47.156081182584266" viewBox="0.9500000476837158 -35.29999923706055 28.44999885559082 35.599998474121094" height="59.00725799999999" data-palette-color="#7a26c1"><path d="M0.95-17.85L0.95-17.85Q0.95-20.25 1.35-22.58 1.75-24.9 2.15-26L2.15-26 2.55-27.15 1.7-30.95Q2.05-32 3.4-33L3.4-33Q4.9-34.05 8.05-34.05 11.2-34.05 12.48-33 13.75-31.95 13.75-29.95L13.75-29.95Q13.75-28.9 12.9-24.7 12.05-20.5 12.05-15.8 12.05-11.1 13.03-8.45 14-5.8 15.78-5.8 17.55-5.8 18.63-8.35 19.7-10.9 19.7-15.85 19.7-20.8 18.98-25.13 18.25-29.45 17.5-31.35L17.5-31.35 16.8-33.25Q16.8-33.4 17.18-33.85 17.55-34.3 18-34.6L18-34.6Q19.2-35.3 21.15-35.3L21.15-35.3Q29.4-35.3 29.4-20.5L29.4-20.5Q29.4-14.1 27.95-9.58 26.5-5.05 23.08-2.38 19.65 0.3 14.35 0.3L14.35 0.3Q7.4 0.3 4.17-4.6 0.95-9.5 0.95-17.85Z" opacity="1" transform="matrix(1,0,0,1,0,0)" fill="#000000" class="wordmark-text-0" data-fill-palette-color="primary" id="text-0"/></svg></g></svg></g></svg></g></svg></g></svg></g></svg></g><g><path d="M50.557 33.816A23.578 23.578 0 0 1 103.943 33.816L98.621 33.816A18.257 18.257 0 0 0 55.879 33.816L50.557 33.816M50.557 120.684A23.578 23.578 0 0 0 103.943 120.684L98.621 120.684A18.257 18.257 0 0 1 55.879 120.684L50.557 120.684" fill="#000000" stroke="transparent" data-fill-palette-color="tertiary"/></g></svg></g><defs/></svg>