<svg xmlns="http://www.w3.org/2000/svg" version="1.1" xmlns:xlink="http://www.w3.org/1999/xlink" xmlns:svgjs="http://svgjs.dev/svgjs" width="1500" height="1500" viewBox="0 0 1500 1500"><rect width="1500" height="1500" fill="#ffffff"></rect><g transform="matrix(0.6666666666666666,0,0,0.6666666666666666,249.39393939393938,438.5856950067477)"><svg viewBox="0 0 396 247" data-background-color="#ffffff" preserveAspectRatio="xMidYMid meet" height="935" width="1500" xmlns="http://www.w3.org/2000/svg" xmlns:xlink="http://www.w3.org/1999/xlink"><g id="tight-bounds" transform="matrix(1,0,0,1,0.2400000000000091,-0.09999999999999432)"><svg viewBox="0 0 395.52 247.2" height="247.2" width="395.52"><g><svg></svg></g><g><svg viewBox="0 0 395.52 247.2" height="247.2" width="395.52"><g transform="matrix(1,0,0,1,75.54432,59.85086874725275)"><svg viewBox="0 0 244.43135999999998 127.4982625054945" height="127.4982625054945" width="244.43135999999998"><g><svg viewBox="0 0 244.43135999999998 127.4982625054945" height="127.4982625054945" width="244.43135999999998"><g><svg viewBox="0 0 244.43135999999998 127.4982625054945" height="127.4982625054945" width="244.43135999999998"><g><svg viewBox="0 0 244.43135999999998 127.4982625054945" height="127.4982625054945" width="244.43135999999998"><g id="textblocktransform"><svg viewBox="0 0 244.43135999999998 127.4982625054945" height="127.4982625054945" width="244.43135999999998" id="textblock"><g><svg viewBox="0 0 244.43135999999998 127.4982625054945" height="127.4982625054945" width="244.43135999999998"><g transform="matrix(1,0,0,1,0,0)"><svg width="244.43135999999998" viewBox="0.95 -35.3 68.25 35.599999999999994" height="127.4982625054945" data-palette-color="#7a26c1"><path d="M0.95-17.85L0.95-17.85Q0.95-20.25 1.35-22.58 1.75-24.9 2.15-26L2.15-26 2.55-27.15 1.7-30.95Q2.05-32 3.4-33L3.4-33Q4.9-34.05 8.05-34.05 11.2-34.05 12.48-33 13.75-31.95 13.75-29.95L13.75-29.95Q13.75-28.9 12.9-24.7 12.05-20.5 12.05-15.8 12.05-11.1 13.03-8.45 14-5.8 15.78-5.8 17.55-5.8 18.63-8.35 19.7-10.9 19.7-15.85 19.7-20.8 18.98-25.13 18.25-29.45 17.5-31.35L17.5-31.35 16.8-33.25Q16.8-33.4 17.18-33.85 17.55-34.3 18-34.6L18-34.6Q19.2-35.3 21.15-35.3L21.15-35.3Q29.4-35.3 29.4-20.5L29.4-20.5Q29.4-14.1 27.95-9.58 26.5-5.05 23.08-2.38 19.65 0.3 14.35 0.3L14.35 0.3Q7.4 0.3 4.17-4.6 0.95-9.5 0.95-17.85ZM35.85 0L35.85 0Q31.75 0 31.75-5.9L31.75-5.9 31.75-20.9 30.65-24.35Q30.85-24.6 31.22-25 31.6-25.4 32.85-26.05 34.1-26.7 35.45-26.7L35.45-26.7Q38.6-26.7 39.25-22.7L39.25-22.7Q41.7-26.5 45.07-26.5 48.45-26.5 48.45-23.3L48.45-23.3Q48.45-20.5 47.25-18.7L47.25-18.7Q46.15-17.1 44.95-16.15L44.95-16.15Q42.6-18.25 39.4-18.85L39.4-18.85 39.4-5.6 40.5-3.05Q40.3-2.7 39.95-2.2 39.6-1.7 38.4-0.85 37.2 0 35.85 0ZM68.15-28.9L68.15-28.9 68.15-5.6 69.2-3.05Q69-2.7 68.65-2.2 68.3-1.7 67.12-0.85 65.95 0 64.59 0L64.59 0Q61.8 0 60.85-2.8L60.85-2.8Q59.25 0 56.15 0 53.05 0 51.15-2.02 49.25-4.05 49.25-7L49.25-7 49.25-14.7Q49.25-19.65 52.1-22.58 54.95-25.5 59.1-25.5L59.1-25.5Q59.75-25.5 60.5-25.35L60.5-25.35Q60.4-28.5 59.6-31.75L59.6-31.75 59.35-32.75Q59.55-33 59.92-33.4 60.3-33.8 61.55-34.48 62.8-35.15 64.2-35.15L64.2-35.15Q68.15-35.15 68.15-28.9ZM56.4-19.85L56.4-9.8Q56.4-7.85 57.27-6.93 58.15-6 60.5-5.85L60.5-5.85 60.5-16.75Q60.35-18.1 59.37-18.78 58.4-19.45 56.4-19.85L56.4-19.85Z" opacity="1" transform="matrix(1,0,0,1,0,0)" fill="#7a26c1" class="wordmark-text-0" data-fill-palette-color="primary" id="text-0"></path></svg></g></svg></g></svg></g></svg></g></svg></g></svg></g></svg></g><g><path d="M0 123.6c0-68.262 55.338-123.6 123.6-123.6 38.315 0 72.558 17.434 95.229 44.801l-7.594 0c-21.573-23.976-52.843-39.052-87.635-39.052-65.087 0-117.851 52.764-117.851 117.851 0 65.087 52.764 117.851 117.851 117.851 34.792 0 66.062-15.076 87.635-39.052h7.594c-22.671 27.368-56.914 44.801-95.229 44.801-68.262 0-123.6-55.338-123.6-123.6z" fill="#7a26c1" stroke="transparent" data-fill-palette-color="tertiary"></path></g></svg></g><defs></defs></svg><rect width="395.52" height="247.2" fill="none" stroke="none" visibility="hidden"></rect></g></svg></g></svg>