<svg id="visual" viewBox="0 0 900 600" width="900" height="600" xmlns="http://www.w3.org/2000/svg" xmlns:xlink="http://www.w3.org/1999/xlink" version="1.1"><path d="M0 435L25 426.3C50 417.7 100 400.3 150 399.7C200 399 250 415 300 435C350 455 400 479 450 471.3C500 463.7 550 424.3 600 416.5C650 408.7 700 432.3 750 431.7C800 431 850 406 875 393.5L900 381L900 601L875 601C850 601 800 601 750 601C700 601 650 601 600 601C550 601 500 601 450 601C400 601 350 601 300 601C250 601 200 601 150 601C100 601 50 601 25 601L0 601Z" fill="#6600ff" stroke-linecap="round" stroke-linejoin="miter"></path></svg>